<mxfile host="app.diagrams.net" agent="Mozilla/5.0 (X11; Linux x86_64) AppleWebKit/537.36 (KHTML, like Gecko) Chrome/131.0.0.0 Safari/537.36" version="25.0.3">
  <diagram name="Page-1" id="yMXycny0_DCxhYgPJzqT">
    <mxGraphModel dx="712" dy="516" grid="1" gridSize="10" guides="1" tooltips="1" connect="1" arrows="1" fold="1" page="1" pageScale="1" pageWidth="850" pageHeight="1100" math="0" shadow="0">
      <root>
        <mxCell id="0" />
        <mxCell id="1" parent="0" />
        <mxCell id="U3VmxpPY0giupfxHcNF3-1" value="Actor" style="shape=umlActor;verticalLabelPosition=bottom;verticalAlign=top;html=1;outlineConnect=0;" vertex="1" parent="1">
          <mxGeometry x="260" y="260" width="40" height="80" as="geometry" />
        </mxCell>
        <mxCell id="U3VmxpPY0giupfxHcNF3-4" value="Register" style="ellipse;whiteSpace=wrap;html=1;" vertex="1" parent="1">
          <mxGeometry x="365" y="170" width="120" height="80" as="geometry" />
        </mxCell>
        <mxCell id="U3VmxpPY0giupfxHcNF3-5" value="Authenticate" style="ellipse;whiteSpace=wrap;html=1;" vertex="1" parent="1">
          <mxGeometry x="510" y="70" width="120" height="80" as="geometry" />
        </mxCell>
        <mxCell id="U3VmxpPY0giupfxHcNF3-6" value="Actor" style="shape=umlActor;verticalLabelPosition=bottom;verticalAlign=top;html=1;outlineConnect=0;" vertex="1" parent="1">
          <mxGeometry x="800" y="80" width="30" height="60" as="geometry" />
        </mxCell>
        <mxCell id="U3VmxpPY0giupfxHcNF3-8" value="" style="endArrow=classic;html=1;rounded=0;entryX=1;entryY=0;entryDx=0;entryDy=0;exitX=0;exitY=0.5;exitDx=0;exitDy=0;" edge="1" parent="1" source="U3VmxpPY0giupfxHcNF3-5" target="U3VmxpPY0giupfxHcNF3-4">
          <mxGeometry width="50" height="50" relative="1" as="geometry">
            <mxPoint x="485" y="210" as="sourcePoint" />
            <mxPoint x="560" y="150" as="targetPoint" />
            <Array as="points" />
          </mxGeometry>
        </mxCell>
        <mxCell id="U3VmxpPY0giupfxHcNF3-10" value="ADMIN&lt;div&gt;&lt;br&gt;&lt;/div&gt;" style="whiteSpace=wrap;html=1;" vertex="1" parent="1">
          <mxGeometry x="780" y="160" width="70" height="30" as="geometry" />
        </mxCell>
        <mxCell id="U3VmxpPY0giupfxHcNF3-11" value="" style="endArrow=classic;html=1;rounded=0;entryX=1;entryY=0.5;entryDx=0;entryDy=0;" edge="1" parent="1" target="U3VmxpPY0giupfxHcNF3-5">
          <mxGeometry width="50" height="50" relative="1" as="geometry">
            <mxPoint x="780" y="110" as="sourcePoint" />
            <mxPoint x="730" y="80" as="targetPoint" />
          </mxGeometry>
        </mxCell>
        <mxCell id="U3VmxpPY0giupfxHcNF3-12" value="" style="endArrow=none;html=1;rounded=0;entryX=0;entryY=1;entryDx=0;entryDy=0;" edge="1" parent="1" target="U3VmxpPY0giupfxHcNF3-4">
          <mxGeometry width="50" height="50" relative="1" as="geometry">
            <mxPoint x="310" y="300" as="sourcePoint" />
            <mxPoint x="360" y="230" as="targetPoint" />
          </mxGeometry>
        </mxCell>
        <mxCell id="U3VmxpPY0giupfxHcNF3-13" value="Login" style="ellipse;whiteSpace=wrap;html=1;" vertex="1" parent="1">
          <mxGeometry x="500" y="350" width="120" height="80" as="geometry" />
        </mxCell>
        <mxCell id="U3VmxpPY0giupfxHcNF3-14" value="" style="endArrow=none;html=1;rounded=0;entryX=0;entryY=0.5;entryDx=0;entryDy=0;" edge="1" parent="1" target="U3VmxpPY0giupfxHcNF3-13">
          <mxGeometry width="50" height="50" relative="1" as="geometry">
            <mxPoint x="310" y="310" as="sourcePoint" />
            <mxPoint x="400" y="340" as="targetPoint" />
          </mxGeometry>
        </mxCell>
        <mxCell id="U3VmxpPY0giupfxHcNF3-15" value="USER&lt;div&gt;&lt;br&gt;&lt;/div&gt;" style="whiteSpace=wrap;html=1;verticalAlign=top;" vertex="1" parent="1">
          <mxGeometry x="245" y="360" width="70" height="20" as="geometry" />
        </mxCell>
        <mxCell id="U3VmxpPY0giupfxHcNF3-17" value="Session Management" style="ellipse;whiteSpace=wrap;html=1;" vertex="1" parent="1">
          <mxGeometry x="680" y="240" width="90" height="50" as="geometry" />
        </mxCell>
        <mxCell id="U3VmxpPY0giupfxHcNF3-18" value="Authentication" style="ellipse;whiteSpace=wrap;html=1;" vertex="1" parent="1">
          <mxGeometry x="720" y="365" width="90" height="50" as="geometry" />
        </mxCell>
        <mxCell id="U3VmxpPY0giupfxHcNF3-19" value="Login Credentials" style="ellipse;whiteSpace=wrap;html=1;" vertex="1" parent="1">
          <mxGeometry x="680" y="480" width="90" height="50" as="geometry" />
        </mxCell>
        <mxCell id="U3VmxpPY0giupfxHcNF3-20" value="" style="endArrow=classic;html=1;rounded=0;exitX=0;exitY=0.5;exitDx=0;exitDy=0;entryX=1;entryY=0;entryDx=0;entryDy=0;" edge="1" parent="1" source="U3VmxpPY0giupfxHcNF3-17" target="U3VmxpPY0giupfxHcNF3-13">
          <mxGeometry relative="1" as="geometry">
            <mxPoint x="660" y="310" as="sourcePoint" />
            <mxPoint x="760" y="310" as="targetPoint" />
          </mxGeometry>
        </mxCell>
        <mxCell id="U3VmxpPY0giupfxHcNF3-22" value="&amp;lt;&amp;lt;includes&amp;gt;&amp;gt;" style="edgeLabel;html=1;align=center;verticalAlign=middle;resizable=0;points=[];" vertex="1" connectable="0" parent="U3VmxpPY0giupfxHcNF3-20">
          <mxGeometry x="-0.0603" y="-1" relative="1" as="geometry">
            <mxPoint as="offset" />
          </mxGeometry>
        </mxCell>
        <mxCell id="U3VmxpPY0giupfxHcNF3-23" value="" style="endArrow=classic;html=1;rounded=0;exitX=0;exitY=0.5;exitDx=0;exitDy=0;entryX=1;entryY=0.5;entryDx=0;entryDy=0;" edge="1" parent="1" source="U3VmxpPY0giupfxHcNF3-18" target="U3VmxpPY0giupfxHcNF3-13">
          <mxGeometry relative="1" as="geometry">
            <mxPoint x="698" y="380" as="sourcePoint" />
            <mxPoint x="620" y="477" as="targetPoint" />
          </mxGeometry>
        </mxCell>
        <mxCell id="U3VmxpPY0giupfxHcNF3-24" value="&amp;lt;&amp;lt;includes&amp;gt;&amp;gt;" style="edgeLabel;html=1;align=center;verticalAlign=middle;resizable=0;points=[];" vertex="1" connectable="0" parent="U3VmxpPY0giupfxHcNF3-23">
          <mxGeometry x="-0.0603" y="-1" relative="1" as="geometry">
            <mxPoint as="offset" />
          </mxGeometry>
        </mxCell>
        <mxCell id="U3VmxpPY0giupfxHcNF3-25" value="" style="endArrow=classic;html=1;rounded=0;exitX=0;exitY=0.5;exitDx=0;exitDy=0;entryX=1;entryY=1;entryDx=0;entryDy=0;" edge="1" parent="1" source="U3VmxpPY0giupfxHcNF3-19" target="U3VmxpPY0giupfxHcNF3-13">
          <mxGeometry relative="1" as="geometry">
            <mxPoint x="648" y="480" as="sourcePoint" />
            <mxPoint x="570" y="577" as="targetPoint" />
          </mxGeometry>
        </mxCell>
        <mxCell id="U3VmxpPY0giupfxHcNF3-26" value="&amp;lt;&amp;lt;includes&amp;gt;&amp;gt;" style="edgeLabel;html=1;align=center;verticalAlign=middle;resizable=0;points=[];" vertex="1" connectable="0" parent="U3VmxpPY0giupfxHcNF3-25">
          <mxGeometry x="-0.0603" y="-1" relative="1" as="geometry">
            <mxPoint as="offset" />
          </mxGeometry>
        </mxCell>
      </root>
    </mxGraphModel>
  </diagram>
</mxfile>
